<?xml version="1.0" encoding="UTF-8"?>
<svg id="Layer_2" data-name="Layer 2" xmlns="http://www.w3.org/2000/svg" viewBox="0 0 115.5 104.38">
  <defs>
    <style>
      .cls-1 {
        fill: #3100ff;
        stroke-width: 0px;
      }
    </style>
  </defs>
  <g id="Calque_1" data-name="Calque 1">
    <path class="cls-1" d="m87.49,90.01s-.65,1.96,0,3.26c.46.92,1.63,1.31,1.63,1.31,0,0,.24,1.43.65,1.63,1.31.65,3.92.33,3.92.33,4.24,0,3.53-1.22,3.61-1.23,1.62-.08,1.94-1.06,2.27-1.38l.65-.65v-.98c0-3.26-2.03-4.57-2.94-4.57-.98,0-1.25-.22-1.57-.49l-1.37-1.14s.67,1.3,0-.01c-.33-.64-.26-1.13-.69-1.51-.56-.5-1.27-1.28-1.27-2.07,0-3.92-1.77-16.41-2.29-17.3-1.31-2.29-.14-8.07.78-11.12.27-.89.88-1.63,1.7-2.07.74-.4,1.85-.85,3.4-1.17-2.29,0-3.26-.65-3.26-.65,3.59.33,5.51-3.55,4.9-2.94-.65.65-3.59.65-3.59.65,1.63,0,2.61-1.31,2.61-1.31-.65.65-2.94,0-2.94,0,3.26-.65,1.94-1.42,3.59-1.96,2.2-.71,2.29-1.96,2.29-1.96,1.31-.33,2.94-.65,3.26-1.96,4.24.65,3.05-4.49,3.92-5.88,1.63-2.61,6.86-2.61,5.88-2.61l-1.96-.65c2.29,0,4.24-2.29,3.61-2.29h-2.31c2.29-.65,2.61-1.96,2.61-1.96-1.96.33-2.61-.65-2.61-.65,3.92-.33,3.58-2.02,3.46-1.96-1.83.98-4.12,0-4.12,0,1.63.33,2.61-.98,2.61-.98-5.88,0-5.22-4.9-6.17-6.7,2.58-8.97,1.56-15.24-.04-16.48-1.06-.82-2.69.43-3.7,1.56-.61.68-1.32,1.25-2.07,1.76-2.91,2-3.64,4.81-3.69,4.84-3.26-.65-6.86,0-6.86,0,0,0-.38-2.64-1.96-3.59s-4.57-3.92-4.57-3.92c-4.62-3.81-5.4,2.36-5.52,4.52-.03.43-.11.85-.14,1.28-.54,8.24,1.42,10.85,1.42,10.85,0,0-1.31.33-2.29,0,0,0,0,.98.33,1.31s-.65-.33-1.96,0c0,0,1,.68.68.98-.35.33-1.98,0-1.98,0,.33.98.65.98.65.98-.65.33-2.29.33-2.29.33.33.33,1.63.65,1.63.65-2.29,2.29-4.24.65-4.24.65-.33.65.98,1.63.65,1.63-1.96,0-4.57,1.96-4.57,1.96l1.31.33c-2.29.33-3.59,1.63-5.22,1.96-1.43.29-10.29.07-12.58.01-.32,0-.64-.03-.96-.07-9.68-1.18-10.99.72-13.56,1.37-1.31.33-2.37.4-2.94.48-.47.06-.92.22-1.35.41-.32.15-.93.09-1.74.07.49.02.45.58.33.65-1.15-.3-4.08.68-4.08.68,0,.33,1.63.33,1.63.33-2.61,1.96-5.22,1.96-5.22,1.96-.33.65,1.96.65.65.98l-1.96.98.98.33c-1.96.33-3.58,2.61-3.58,2.61h.64c-1.63.65-2.29,2.94-2.29,2.94-1.96.98-2.94,3.26-2.94,3.26l1.63-.33c-2.61.65-3.26,3.26-3.26,3.26-.98,0-2.61,3.59-2.61,3.59l1.63-.33c-2.29.98-3.26,3.59-3.26,3.59-1.96,4.24-3.26,3.26-3.26,3.26,0,.65.98.98.98.98-2.29,1.31-1.91,2.69-3.26,3.59.98,0,.98.33.98.33-.65,1.63-2.94,2.29-3.92,2.94,1.63,0,2.5-.64,2.5.36v1c2-1,3.07-1.03,3-1-.98.65-1,1-1.58,1.27,1.96-.33,2.58-.27,2.58-.27l-.3.93c6.53.65,7.51-3.26,7.51-3.26-.33.98.65,2.29.65,2.29,0-.98.98-1.96.98-1.96v.65c2.94-.98,4.24-4.24,4.24-4.24l.65.33s0-1.96,0-1.63c0,.65,2.61,1.63,1.96,1.31s-.33-3.26,0-2.61.98.65,1.63.65h0c-.65,0-.65-1.63-.65-1.63,1.96-1.31,1.96-3.26,1.96-3.26,0,0,.65,3.59.65,1.96s.98-3.26.98-3.26c.1-.15.65,3.59-.33,6.2-.58,1.56-3.26,4.9-4.9,6.2-.38.31-1.83.96-2.32,1.01-.57.06-1.37.21-1.93.62-1.31.98-1.48,6.39-1.96,7.18-.98,1.63-3.59,12.08-3.26,16,.6,7.16,4.2,6.43,5.22,6.53,3.26.33,3.26-.98,3.92-.98,2.29,0,2.29-.98,2.29-.98l.41-.78.24-.2c.41-.41.57-.99.43-1.55l-.1-.41s-.83-3.26-2.29-3.26c-1.31,0-1.96-1.63-1.96-1.63-1.63-5.55,3.87-14.44,5.22-15.34,1.96-1.31,9.79-4.24,9.79-4.24,3.3-1.92,7.18-7.84,7.25-9.28.01-.22.39-.18.48.02l1.49,3.73c.17.42.25.86.25,1.31v2.74c0,.68-.3,1.32-.81,1.75-.37.31-.74.69-.82,1.03-.33,1.31,5.22,12.52,7.63,16.83.66,1.19,1.25,2.08,1.51,3.41.65,3.26,1.63,2.29,1.96,2.94,1.56,3.12,5.76,2.13,6.69,1.29.12-.11.3-.14.45-.07.7.29,2-.23,2-.89,1.63,0,1.36-1.27,1.56-1.29.32-.03.76-.28.07-1.65-1.99-3.97-4.56-1.64-5.55-2.29-8.49-5.55-6.89-18.63-6.53-19.26,1.31-2.29,2.94-1.96,3.26-2.94s.8-2.85.92-4.12c.04-.41.41-.69.81-.62,1.21.23,3.65.57,5.39.11.24-.06.47.15.41.39-.75,2.91.31,13.38.31,13.38.65,5.88,2.29,11.43,2.29,20.57,0,.98-1.96,1.31-.98,4.9,0,1.27,1.34,1.43,2.3,1.39.48-.02.87.37.85.85-.02.44-.01.89.07,1.01,1.03,1.31,3.31.33,3.96,0,3.39,1.47,4.24-1.96,4.24-1.96,1.63-.65,1.63-1.63,1.63-1.63v-2.61c-.33-2.29-1.63-2.94-2.61-3.59s-2.31-8.6-2.81-11.09c-.09-.43-.14-.87-.16-1.31-.22-7.04,1-15.02,1-15.02l.59-1.71.72-1.23s-.59-.7-.59-1.7.59-1.23.59-1.23c-.25-3.28,1.25-3.83,2.4-3.83.47,0,.86.36.9.83.05.75,1.12,2.24,1.12,2.24,0,0-1,0-1.47-.54s.47,2.54,2.47,2.54c0,0-1,1-2,0,0,2,2,2,2,2,0,0-.34.71-1.17.36.17,1.64,4.9,12.41,6.5,23.43.1.68-.29,1.42.03,2.03.23.46.98.65,1.63.33Z"/>
  </g>
</svg>